# This file uses centimeters as units for non-parametric coordinates.

mtllib ed1.mtl
g default
v -11.606142 -0.083258 11.606142
v 11.606142 -0.083258 11.606142
v -11.606142 0.382380 11.606142
v 11.606142 0.382380 11.606142
v -11.606142 0.382380 -11.606142
v 11.606142 0.382380 -11.606142
v -11.606142 -0.083258 -11.606142
v 11.606142 -0.083258 -11.606142
vt 0.375000 0.000000
vt 0.625000 0.000000
vt 0.375000 0.250000
vt 0.625000 0.250000
vt 0.375000 0.500000
vt 0.625000 0.500000
vt 0.375000 0.750000
vt 0.625000 0.750000
vt 0.375000 1.000000
vt 0.625000 1.000000
vt 0.875000 0.000000
vt 0.875000 0.250000
vt 0.125000 0.000000
vt 0.125000 0.250000
vn 0.000000 0.000000 1.000000
vn 0.000000 0.000000 1.000000
vn 0.000000 0.000000 1.000000
vn 0.000000 0.000000 1.000000
vn 0.000000 1.000000 0.000000
vn 0.000000 1.000000 0.000000
vn 0.000000 1.000000 0.000000
vn 0.000000 1.000000 0.000000
vn 0.000000 0.000000 -1.000000
vn 0.000000 0.000000 -1.000000
vn 0.000000 0.000000 -1.000000
vn 0.000000 0.000000 -1.000000
vn 0.000000 -1.000000 0.000000
vn 0.000000 -1.000000 0.000000
vn 0.000000 -1.000000 0.000000
vn 0.000000 -1.000000 0.000000
vn 1.000000 0.000000 0.000000
vn 1.000000 0.000000 0.000000
vn 1.000000 0.000000 0.000000
vn 1.000000 0.000000 0.000000
vn -1.000000 0.000000 0.000000
vn -1.000000 0.000000 0.000000
vn -1.000000 0.000000 0.000000
vn -1.000000 0.000000 0.000000
s off
g pCube1
usemtl initialShadingGroup
f 1/1/1 2/2/2 4/4/3 3/3/4
f 3/3/5 4/4/6 6/6/7 5/5/8
f 5/5/9 6/6/10 8/8/11 7/7/12
f 7/7/13 8/8/14 2/10/15 1/9/16
f 2/2/17 8/11/18 6/12/19 4/4/20
f 7/13/21 1/1/22 3/3/23 5/14/24
g default
v -10.601467 0.178889 8.887468
v 10.601467 0.178889 8.887468
v -10.601467 21.381823 8.887468
v 10.601467 21.381823 8.887468
v -10.601466 23.041610 -8.718850
v 10.601466 23.041610 -8.718850
v -10.601466 0.178888 -8.718850
v 10.601466 0.178888 -8.718850
v 10.601468 21.381823 -0.026186
v 10.601468 18.850400 0.124694
v -10.601468 21.381823 -0.026186
v -10.601468 18.850400 0.124694
v 10.601467 3.358587 8.887468
v 10.601466 3.381931 -8.718850
v -10.601467 3.358587 8.887468
v -10.601466 3.381931 -8.718850
v 10.601468 0.178887 2.034347
v 13.060680 2.644556 1.976421
v -10.601468 0.178887 2.034347
v -13.060680 2.644556 1.976421
v 10.601468 0.178887 -1.833692
v 13.060679 2.648119 -1.915772
v -10.601468 0.178887 -1.833692
v -13.060679 2.648119 -1.915772
v 10.601468 2.146477 0.245237
v -10.601468 2.146477 0.245237
v 10.601468 0.178887 0.173335
v -10.601468 0.178887 0.173335
v 10.601468 11.834166 -0.057269
v -10.601468 11.834166 -0.057269
v 10.601467 11.592808 8.887468
v -10.601467 11.592808 8.887468
v 10.601466 11.733178 -8.718850
v -10.601466 11.733178 -8.718850
v 15.197187 15.767028 10.601468
v 17.931670 15.628861 0.038210
v -15.197187 15.767028 10.601468
v -17.931670 15.628861 0.038210
v 13.335954 17.849912 -10.601468
v -13.335954 17.849912 -10.601468
v 13.372464 6.958275 10.601468
v 16.569528 6.904281 0.808441
v 16.606946 6.895382 -0.805425
v 13.409880 6.841374 -10.601468
v -13.372464 6.958275 10.601468
v -16.569528 6.904281 0.808441
v -16.606946 6.895382 -0.805425
v -13.409880 6.841374 -10.601468
v 10.601467 5.046404 8.887468
v 13.060679 4.419477 1.242982
v 13.060679 4.444495 -1.172794
v 10.601466 5.265995 -8.718850
v -10.601467 5.046404 8.887468
v -13.060679 4.419477 1.242982
v -13.060679 4.444495 -1.172794
v -10.601466 5.265995 -8.718850
v 13.372464 9.634760 10.601468
v 16.569528 9.649344 0.322295
v 16.606946 9.522029 -0.384248
v 13.409880 9.536529 -10.601468
v -13.372464 9.634760 10.601468
v -16.569528 9.649344 0.322295
v -16.606946 9.522029 -0.384248
v -13.409880 9.536529 -10.601468
v 15.197187 12.731694 10.601468
v 17.931670 13.022116 0.012787
v 13.335954 13.313241 -10.601468
v -15.197187 12.731694 10.601468
v -17.931670 13.022116 0.012787
v -13.335954 13.313241 -10.601468
v 13.335954 14.295275 -10.601468
v -13.335954 14.295275 -10.601468
v 14.991755 10.143886 -0.296306
v 15.218693 10.143865 0.236383
v 16.014943 9.646814 2.105392
v 16.089211 6.912392 2.279716
v 15.517890 6.159560 0.938677
v 14.690263 5.570729 -1.003980
v -14.991755 10.143886 -0.296306
v -15.218693 10.143865 0.236383
v -16.014943 9.646814 2.105392
v -16.089211 6.912392 2.279716
v -15.517890 6.159560 0.938677
v -14.690263 5.570729 -1.003980
v -10.601467 4.263692 8.887468
v 10.601467 4.263692 8.887468
v -10.601467 10.739608 8.887468
v 10.601467 10.739608 8.887468
vt 0.375000 0.000000
vt 0.625000 0.000000
vt 0.375000 0.250000
vt 0.625000 0.250000
vt 0.375000 0.500000
vt 0.625000 0.500000
vt 0.375000 0.750000
vt 0.625000 0.750000
vt 0.375000 1.000000
vt 0.625000 1.000000
vt 0.875000 0.000000
vt 0.875000 0.250000
vt 0.125000 0.000000
vt 0.125000 0.250000
vt 0.625000 0.375309
vt 0.750309 0.250000
vt 0.748530 0.200582
vt 0.249691 0.250000
vt 0.375000 0.375309
vt 0.251470 0.200582
vt 0.625000 0.037491
vt 0.625000 0.712234
vt 0.875000 0.037767
vt 0.375000 0.037491
vt 0.125000 0.037767
vt 0.375000 0.712234
vt 0.625000 0.895503
vt 0.729497 0.000000
vt 0.730180 0.037607
vt 0.270503 0.000000
vt 0.375000 0.895503
vt 0.269820 0.037607
vt 0.625000 0.857634
vt 0.767366 0.000000
vt 0.768334 0.037649
vt 0.232634 0.000000
vt 0.375000 0.857634
vt 0.231666 0.037649
vt 0.746337 0.023199
vt 0.253663 0.023199
vt 0.625000 0.877815
vt 0.747185 0.000000
vt 0.252815 0.000000
vt 0.375000 0.877815
vt 0.750675 0.120663
vt 0.249325 0.120663
vt 0.625000 0.125442
vt 0.375000 0.125442
vt 0.625000 0.621390
vt 0.875000 0.128610
vt 0.125000 0.128610
vt 0.375000 0.621390
vt 0.625000 0.183797
vt 0.749550 0.162598
vt 0.375000 0.183797
vt 0.250451 0.162598
vt 0.625000 0.561214
vt 0.875000 0.188786
vt 0.125000 0.188786
vt 0.375000 0.561214
vt 0.625000 0.079935
vt 0.740468 0.079298
vt 0.759497 0.079193
vt 0.625000 0.671444
vt 0.875000 0.078556
vt 0.375000 0.079935
vt 0.259532 0.079298
vt 0.240503 0.079193
vt 0.125000 0.078556
vt 0.375000 0.671444
vt 0.625000 0.057392
vt 0.735344 0.058535
vt 0.763828 0.058830
vt 0.625000 0.690019
vt 0.875000 0.059981
vt 0.375000 0.057392
vt 0.264656 0.058535
vt 0.236172 0.058830
vt 0.125000 0.059981
vt 0.375000 0.690019
vt 0.625000 0.102355
vt 0.746200 0.102527
vt 0.754531 0.102539
vt 0.625000 0.647290
vt 0.875000 0.102710
vt 0.375000 0.102355
vt 0.253800 0.102527
vt 0.245469 0.102539
vt 0.125000 0.102710
vt 0.375000 0.647290
vt 0.625000 0.148008
vt 0.749849 0.151432
vt 0.625000 0.595135
vt 0.875000 0.154865
vt 0.375000 0.148008
vt 0.250151 0.151432
vt 0.125000 0.154865
vt 0.375000 0.595135
vt 0.625000 0.583556
vt 0.875000 0.166444
vt 0.125000 0.166444
vt 0.375000 0.583556
vt 0.753494 0.107413
vt 0.747213 0.106632
vt 0.725176 0.102497
vt 0.723120 0.079394
vt 0.738932 0.073075
vt 0.761838 0.068187
vt 0.246506 0.107413
vt 0.252787 0.106632
vt 0.274824 0.102497
vt 0.276880 0.079394
vt 0.261068 0.073075
vt 0.238162 0.068187
vt 0.375000 0.048163
vt 0.625000 0.048163
vt 0.375000 0.116573
vt 0.625000 0.116573
vn -0.010849 0.000000 0.999941
vn -0.015625 0.000000 0.999878
vn -0.349444 0.000000 0.936957
vn -0.349444 0.000000 0.936957
vn 0.000000 0.995586 0.093856
vn 0.000000 0.995586 0.093856
vn 0.000000 0.995586 0.093856
vn 0.000000 0.995586 0.093856
vn 0.000000 0.995586 0.093856
vn 0.000000 0.995586 0.093856
vn 0.010966 0.000000 -0.999940
vn 0.016267 0.000000 -0.999868
vn 0.567072 0.000000 -0.823668
vn 0.567072 0.000000 -0.823668
vn 0.567072 0.000000 -0.823668
vn 0.000000 -1.000000 0.000000
vn 0.000000 -1.000000 0.000000
vn 0.000000 -1.000000 0.000000
vn 0.000000 -1.000000 0.000000
vn 0.000000 -1.000000 0.000000
vn 0.000000 -1.000000 0.000000
vn 0.000000 -1.000000 0.000000
vn 0.000000 -1.000000 0.000000
vn 0.000000 -1.000000 0.000000
vn 0.000000 -1.000000 0.000000
vn 0.630360 0.775889 -0.025346
vn 0.734769 0.677711 0.028665
vn 0.679862 0.727577 0.091762
vn 1.000000 0.000000 -0.000000
vn -0.901027 -0.393287 -0.182961
vn -0.907333 -0.416893 -0.054289
vn -0.952312 -0.249036 -0.176305
vn -0.947413 -0.202519 -0.247779
vn 0.665989 -0.726997 -0.167134
vn 0.451528 0.887041 -0.096340
vn 0.851553 0.471810 -0.228586
vn 0.845692 0.469420 -0.253868
vn -0.679862 0.727577 0.091762
vn -0.734769 0.677711 0.028665
vn -0.630360 0.775889 -0.025346
vn -1.000000 0.000000 -0.000000
vn 0.902245 -0.391170 0.181494
vn 0.909093 -0.412242 0.060046
vn 0.951176 -0.254834 0.174136
vn 0.947656 -0.206579 0.243460
vn -0.580734 -0.806689 0.109552
vn -0.703091 -0.705413 -0.089758
vn -0.702119 -0.712044 -0.004722
vn -0.913501 -0.390748 0.113279
vn 0.875066 -0.483868 0.011427
vn 0.743462 -0.668745 -0.006648
vn -0.951176 -0.254834 0.174136
vn -0.909093 -0.412242 0.060046
vn -0.902245 -0.391170 0.181494
vn -0.947656 -0.206579 0.243460
vn 0.952312 -0.249036 -0.176305
vn 0.907333 -0.416893 -0.054289
vn 0.901027 -0.393287 -0.182961
vn 0.947413 -0.202519 -0.247779
vn -0.875066 -0.483868 0.011427
vn -0.743462 -0.668745 -0.006648
vn 0.410399 0.909022 0.072468
vn 0.639254 0.751851 0.161474
vn 0.949704 0.268175 0.161694
vn -0.733930 -0.647129 0.206326
vn -0.907103 -0.362622 -0.213704
vn -0.665989 -0.726997 -0.167134
vn -0.717656 -0.635780 -0.284171
vn 0.783995 0.617518 0.063435
vn 0.851964 0.521686 -0.044731
vn -0.698377 -0.668493 0.255707
vn -0.947120 0.066490 0.313914
vn 0.827248 0.555979 -0.080916
vn -0.706943 -0.659836 -0.254655
vn 0.580734 -0.806689 0.109552
vn 0.703091 -0.705413 -0.089758
vn -0.851964 0.521686 -0.044731
vn -0.783995 0.617518 0.063435
vn 0.717656 -0.635780 -0.284171
vn 0.917908 0.001412 -0.396790
vn -0.827249 0.555979 -0.080916
vn 0.769619 -0.578285 0.270690
vn 0.539913 -0.823269 0.175276
vn 0.940780 -0.292822 0.170848
vn 0.500233 -0.852052 -0.154190
vn 0.875229 -0.408542 -0.258974
vn 0.850770 -0.440692 -0.286323
vn 0.706942 -0.659836 -0.254655
vn -0.714782 0.673103 0.189786
vn -0.639254 0.751851 0.161474
vn -0.769619 -0.578285 0.270690
vn -0.814613 -0.506752 0.282149
vn -0.949703 0.268176 0.161694
vn -0.851553 0.471810 -0.228586
vn -0.875229 -0.408542 -0.258974
vn -0.940780 -0.292822 0.170848
vn -0.850770 -0.440692 -0.286323
vn -0.845692 0.469420 -0.253868
vn 0.733930 -0.647129 0.206326
vn 0.698377 -0.668493 0.255707
vn 0.947120 0.066490 0.313914
vn 0.907103 -0.362622 -0.213704
vn -0.539913 -0.823269 0.175276
vn -0.500233 -0.852052 -0.154190
vn -0.410398 0.909022 0.072468
vn -0.451528 0.887041 -0.096340
vn 0.913501 -0.390748 0.113279
vn 0.702120 -0.712043 -0.004722
vn -0.917908 0.001412 -0.396790
vn -0.016267 0.000000 -0.999868
vn -0.010966 0.000000 -0.999940
vn -0.567072 0.000000 -0.823668
vn -0.567072 0.000000 -0.823668
vn -0.567072 0.000000 -0.823668
vn 0.714782 0.673103 0.189786
vn 0.814613 -0.506752 0.282149
vn -0.006365 0.000000 -0.999980
vn -0.556816 0.000000 -0.830636
vn -0.556816 0.000000 -0.830636
vn 0.000000 0.000000 -1.000000
vn 0.000000 0.000000 -1.000000
vn 0.000000 0.000000 -1.000000
vn 0.000000 0.000000 -1.000000
vn 0.006365 0.000000 -0.999980
vn 0.556816 0.000000 -0.830636
vn 0.556816 0.000000 -0.830636
vn 0.015625 0.000000 0.999878
vn 0.010849 0.000000 0.999941
vn 0.349444 0.000000 0.936957
vn 0.349444 0.000000 0.936957
vn 0.005767 0.000000 0.999983
vn 0.017093 0.000000 0.999854
vn 0.526049 0.000000 0.850455
vn 0.526049 0.000000 0.850454
vn -0.017093 0.000000 0.999854
vn -0.005767 0.000000 0.999983
vn -0.526049 0.000000 0.850454
vn -0.526049 0.000000 0.850454
vn -0.000000 0.000000 1.000000
vn -0.000000 0.000000 1.000000
vn -0.000000 0.000000 1.000000
vn -0.000000 0.000000 1.000000
vn -0.000000 0.000000 1.000000
vn -0.000000 0.000000 1.000000
s 1
g pCube2
usemtl initialShadingGroup
f 12/18/25 39/61/26 73/105/27 43/67/28
s off
f 11/17/29 12/18/30 17/29/31 14/20/32 13/19/33 19/33/34
s 2
f 13/19/35 42/66/36 78/112/37 80/116/38 48/74/39
s off
f 15/21/40 16/22/41 29/47/42 35/55/43 25/41/44 10/24/45 9/23/46 27/45/47 36/58/48 31/51/49
s 3
f 12/18/50 18/31/51 14/26/52 17/30/53
s 4
f 15/27/54 31/50/55 32/52/56 24/39/57
s 3
f 41/64/58 81/117/59 67/97/60 68/99/61
s 4
f 13/28/62 20/34/63 11/17/64 19/32/65
s 3
f 10/16/66 25/42/67 26/43/68 21/35/69
s 4
f 76/109/70 77/110/71 38/60/72 40/62/73
s 3
f 26/43/68 25/42/67 35/56/74 33/53/75
s 4
f 28/46/76 27/44/77 9/15/78 23/38/79
s 3
f 30/49/80 29/48/81 16/25/82 22/37/83
s 4
f 32/52/56 31/50/55 36/57/84 34/54/85
s 3
f 26/43/68 33/53/75 30/49/80
s 4
f 32/52/56 34/54/85 28/46/76
s 3
f 33/53/75 35/56/74 29/48/81 30/49/80
s 4
f 34/54/85 36/57/84 27/44/77 28/46/76
s 3
f 82/118/86 83/119/87 66/96/88
s 4
f 62/91/89 63/92/90 32/52/56 28/46/76
s 3
f 66/96/88 67/97/60 81/117/59 82/118/86
s 4
f 42/65/91 38/60/72 77/110/71 78/111/92
s 3
f 43/67/93 44/68/94 18/31/51 12/18/50
s 4
f 61/90/95 62/91/89 28/46/76 23/38/79 93/129/96
s 3
f 18/31/51 44/68/94 47/72/97 14/26/52
s 4
f 24/39/57 32/52/56 63/92/90 64/93/98
s 3
f 73/105/99 74/106/100 44/68/94 43/67/93
s 4
f 20/34/63 46/70/101 45/69/102 11/17/64
s 3
f 47/72/97 44/68/94 74/106/100 75/108/103 79/114/104
s 4
f 48/73/105 46/70/101 20/34/63 13/28/62
s 3
f 84/120/106 85/121/107 50/76/108
f 85/121/107 86/122/109 51/77/110 50/76/108
f 52/79/111 51/77/110 86/122/109 60/89/112
s 4
f 69/100/113 89/125/114 90/126/115 53/80/116
f 70/101/117 71/102/118 55/82/119 54/81/120
f 56/83/121 55/82/119 71/102/118 72/103/122
s 3
f 21/35/69 26/43/68 58/86/123 57/85/124 94/130/125
f 30/49/80 59/87/126 58/86/123 26/43/68
f 60/89/112 59/87/126 30/49/80 22/37/83
s 4
f 53/80/116 90/126/115 91/127/127 62/91/89 61/90/95
f 91/127/127 92/128/128 63/92/90 62/91/89
f 64/93/98 63/92/90 92/128/128
s 3
f 83/119/87 84/120/106 50/76/108 66/96/88
f 50/76/108 51/77/110 67/97/60 66/96/88
f 68/99/61 67/97/60 51/77/110 52/79/111
s 4
f 40/62/73 38/60/72 88/124/129 89/125/114 69/100/113
f 38/60/72 87/123/130 88/124/129
f 42/65/91 87/123/130 38/60/72
s 3
f 39/61/131 37/59/132 74/106/100 73/105/99
f 75/108/103 74/106/100 37/59/132 41/64/58
s 4
f 45/69/102 46/70/101 77/110/71 76/109/70
f 78/111/92 77/110/71 46/70/101 48/73/105 80/115/133
s 2
f 41/63/134 14/20/135 47/71/136 79/113/137 75/107/138
s 3
f 41/64/58 37/59/132 81/117/59
f 82/118/86 81/117/59 37/59/132
f 65/95/139 83/119/87 82/118/86 37/59/132 39/61/131
f 49/75/140 84/120/106 83/119/87 65/95/139
f 57/85/124 58/86/123 85/121/107 84/120/106 49/75/140
f 58/86/123 59/87/126 86/122/109 85/121/107
f 60/89/112 86/122/109 59/87/126
s 2
f 60/88/141 41/63/134 68/98/142 52/78/143
s 4
f 72/103/122 71/102/118 87/123/130 42/65/91
f 88/124/129 87/123/130 71/102/118 70/101/117
f 89/125/114 88/124/129 70/101/117
f 90/126/115 89/125/114 70/101/117 54/81/120
f 91/127/127 90/126/115 54/81/120
f 54/81/120 55/82/119 92/128/128 91/127/127
f 64/93/98 92/128/128 55/82/119 56/83/121
s 2
f 13/19/35 14/20/135 41/63/134 60/88/141 22/36/144 16/22/145 15/21/146 24/40/147 64/94/148 42/66/36
f 42/66/36 64/94/148 56/84/149 72/104/150
s 1
f 40/62/151 11/17/152 45/69/153 76/109/154
f 61/90/155 95/131/156 40/62/151 69/100/157 53/80/158
f 39/61/26 96/132/159 57/85/160 49/75/161 65/95/162
f 9/15/163 10/16/164 21/35/165 94/130/166 57/85/160 96/132/159 39/61/26 12/18/25 11/17/152 40/62/151 95/131/156 61/90/155 93/129/167 23/38/168
g default
v -10.346190 21.228504 8.529829
v 10.346190 21.228504 8.529829
v -12.890618 38.288161 8.529829
v 12.890618 38.288161 8.529829
v -12.567658 38.288161 -8.529829
v 12.567658 38.288161 -8.529829
v -11.208241 21.228504 -8.529829
v 11.208241 21.228504 -8.529829
v -10.546122 29.758332 0.000000
v 10.546122 29.758332 0.000000
v -3.829884 29.225526 8.529829
v 3.829884 29.225526 8.529829
v -4.368975 30.014979 -8.529829
v 4.368975 30.014979 -8.529829
vt 0.375000 0.000000
vt 0.625000 0.000000
vt 0.375000 0.250000
vt 0.625000 0.250000
vt 0.375000 0.500000
vt 0.625000 0.500000
vt 0.375000 0.750000
vt 0.625000 0.750000
vt 0.375000 1.000000
vt 0.625000 1.000000
vt 0.875000 0.000000
vt 0.875000 0.250000
vt 0.125000 0.000000
vt 0.125000 0.250000
vt 0.250000 0.125000
vt 0.750000 0.125000
vt 0.375000 0.117192
vt 0.625000 0.117192
vt 0.125000 0.128761
vt 0.375000 0.621239
vt 0.625000 0.621239
vt 0.875000 0.128761
vn 0.000000 0.000000 1.000000
vn 0.000000 0.000000 1.000000
vn 0.000000 0.000000 1.000000
vn 0.000000 0.000000 1.000000
vn 0.000000 0.000000 1.000000
vn 0.000000 0.000000 1.000000
vn 0.000000 1.000000 -0.000000
vn 0.000000 1.000000 -0.000000
vn 0.000000 1.000000 -0.000000
vn 0.000000 1.000000 -0.000000
vn 0.000000 0.000000 -1.000000
vn 0.000000 0.000000 -1.000000
vn 0.000000 0.000000 -1.000000
vn 0.000000 0.000000 -1.000000
vn 0.000000 0.000000 -1.000000
vn 0.000000 0.000000 -1.000000
vn 0.000000 -1.000000 -0.000000
vn 0.000000 -1.000000 -0.000000
vn 0.000000 -1.000000 -0.000000
vn 0.000000 -1.000000 -0.000000
vn 0.904212 0.291211 0.312405
vn 0.930868 0.291935 -0.219677
vn 0.990397 -0.136765 0.020229
vn -0.862047 -0.445666 -0.241365
vn -0.990397 -0.136765 0.020229
vn -0.860214 -0.458865 0.222428
vn -0.930868 0.291935 -0.219677
vn -0.807666 -0.059064 -0.586674
vn 0.785698 -0.076433 0.613870
vn -0.904212 0.291211 0.312405
vn -0.785698 -0.076433 0.613870
vn 0.807666 -0.059064 -0.586674
vn 0.862047 -0.445666 -0.241365
vn 0.860214 -0.458865 0.222428
s off
g pCube3
usemtl initialShadingGroup
f 97/133/169 98/134/170 108/150/171 100/136/172 99/135/173 107/149/174
f 99/135/175 100/136/176 102/138/177 101/137/178
f 101/137/179 102/138/180 110/153/181 104/140/182 103/139/183 109/152/184
f 103/139/185 104/140/186 98/142/187 97/141/188
s 1
f 98/134/189 104/143/190 106/148/191
s 2
f 101/146/192 105/147/193 99/135/194
f 103/145/195 105/147/193 109/151/196
s 1
f 98/134/189 106/148/191 108/150/197
s 2
f 103/145/195 97/133/198 105/147/193
f 99/135/194 105/147/193 107/149/199
s 1
f 106/148/191 110/154/200 102/144/201
f 100/136/202 106/148/191 102/144/201
s 2
f 107/149/199 105/147/193 97/133/198
s 1
f 108/150/197 106/148/191 100/136/202
s 2
f 109/151/196 105/147/193 101/146/192
s 1
f 106/148/191 104/143/190 110/154/200
g default
v -12.360708 38.173356 6.633905
v 12.224120 38.173356 6.633904
v -6.633905 51.441167 6.633905
v 6.633907 51.441167 6.633904
v -6.633905 51.441167 -6.633905
v 6.633907 51.441167 -6.633906
v -12.360708 38.173356 -6.633905
v 12.224120 38.173356 -6.633906
v -12.360708 44.387070 -0.012671
v 12.224120 44.387070 -0.012672
vt 0.375000 0.000000
vt 0.625000 0.000000
vt 0.375000 0.250000
vt 0.625000 0.250000
vt 0.375000 0.500000
vt 0.625000 0.500000
vt 0.375000 0.750000
vt 0.625000 0.750000
vt 0.375000 1.000000
vt 0.625000 1.000000
vt 0.875000 0.000000
vt 0.875000 0.250000
vt 0.125000 0.000000
vt 0.125000 0.250000
vt 0.249761 0.117082
vt 0.750239 0.117082
vn 0.000000 -0.000000 1.000000
vn 0.000000 -0.000000 1.000000
vn 0.000000 -0.000000 1.000000
vn 0.000000 -0.000000 1.000000
vn 0.000000 1.000000 0.000000
vn 0.000000 1.000000 0.000000
vn 0.000000 1.000000 0.000000
vn 0.000000 1.000000 0.000000
vn -0.000000 0.000000 -1.000000
vn -0.000000 0.000000 -1.000000
vn -0.000000 0.000000 -1.000000
vn -0.000000 0.000000 -1.000000
vn 0.000000 -1.000000 0.000000
vn 0.000000 -1.000000 0.000000
vn 0.000000 -1.000000 0.000000
vn 0.000000 -1.000000 0.000000
vn 0.916241 0.400627 0.000000
vn 0.921542 0.388279 0.000000
vn 0.916374 0.400323 0.000000
vn 0.876154 0.482031 0.000000
vn 0.876154 0.482031 0.000000
vn -0.912657 0.408726 0.000000
vn -0.918125 0.396291 0.000000
vn -0.912521 0.409031 0.000000
vn -0.871162 0.490995 0.000000
vn -0.871162 0.490995 0.000000
s off
g pCube4
usemtl initialShadingGroup
f 111/155/203 112/156/204 114/158/205 113/157/206
f 113/157/207 114/158/208 116/160/209 115/159/210
f 115/159/211 116/160/212 118/162/213 117/161/214
f 117/161/215 118/162/216 112/164/217 111/163/218
s 1
f 112/156/219 120/170/220 118/165/221 116/166/222 114/158/223
s 2
f 117/167/224 119/169/225 111/155/226 113/157/227 115/168/228
f 117/167/224 111/155/226 119/169/225
s 1
f 112/156/219 118/165/221 120/170/220
g default
v -6.028648 51.085739 4.857307
v 6.028648 51.085739 4.857307
v -5.238018 60.287579 6.488953
v 5.238018 60.287579 6.488953
v -7.362937 60.287579 -5.432735
v 7.362937 60.287579 -5.432735
v -6.557494 51.085739 -5.432729
v 6.557494 51.085739 -5.432729
v -8.312103 60.287579 6.285342
v -9.102733 54.482810 -1.983709
v 8.312103 60.287579 6.285342
v 9.102733 54.482810 -1.983709
vt 0.375000 0.000000
vt 0.625000 0.000000
vt 0.375000 0.250000
vt 0.625000 0.250000
vt 0.375000 0.500000
vt 0.625000 0.500000
vt 0.375000 0.750000
vt 0.625000 0.750000
vt 0.375000 1.000000
vt 0.625000 1.000000
vt 0.875000 0.000000
vt 0.875000 0.250000
vt 0.125000 0.000000
vt 0.125000 0.250000
vt 0.369468 0.250000
vt 0.375000 0.255532
vt 0.189140 0.092293
vt 0.625000 0.255532
vt 0.630532 0.250000
vt 0.810860 0.092293
vn 0.000000 -0.174594 0.984640
vn 0.000000 -0.174594 0.984640
vn 0.000000 -0.174594 0.984640
vn 0.000000 -0.174594 0.984640
vn 0.000000 1.000000 0.000000
vn 0.000000 1.000000 0.000000
vn 0.000000 1.000000 0.000000
vn 0.000000 1.000000 0.000000
vn 0.000000 1.000000 0.000000
vn 0.000000 1.000000 0.000000
vn 0.000000 -0.000001 -1.000000
vn 0.000000 -0.000001 -1.000000
vn 0.000000 -0.000001 -1.000000
vn 0.000000 -0.000001 -1.000000
vn 0.000000 -1.000000 -0.000000
vn 0.000000 -1.000000 -0.000000
vn 0.000000 -1.000000 -0.000000
vn 0.000000 -1.000000 -0.000000
vn 0.868248 -0.335763 0.365251
vn 0.879300 -0.405977 -0.249026
vn 0.987814 -0.015517 -0.154865
vn 0.976721 -0.214481 0.003841
vn -0.976721 -0.214481 0.003841
vn -0.868248 -0.335763 0.365251
vn -0.786093 -0.280545 0.550774
vn -0.883555 -0.172392 0.435445
vn -0.987814 -0.015517 -0.154865
vn 0.883555 -0.172392 0.435445
vn -0.879300 -0.405977 -0.249026
vn 0.786093 -0.280545 0.550774
s off
g pCube5
usemtl initialShadingGroup
f 121/171/229 122/172/230 124/174/231 123/173/232
f 123/173/233 124/174/234 131/188/235 126/176/236 125/175/237 129/186/238
f 125/175/239 126/176/240 128/178/241 127/177/242
f 127/177/243 128/178/244 122/180/245 121/179/246
s 1
f 122/172/247 128/181/248 126/182/249 132/190/250
s 2
f 130/187/251 121/171/252 123/173/253 129/185/254
f 125/184/255 130/187/251 129/185/254
s 1
f 131/189/256 132/190/250 126/182/249
s 2
f 127/183/257 121/171/252 130/187/251 125/184/255
s 1
f 122/172/247 132/190/250 131/189/256 124/174/258
